<?xml version="1.0" standalone="no"?>
<!DOCTYPE svg PUBLIC "-//W3C//DTD SVG 20010904//EN"
 "http://www.w3.org/TR/2001/REC-SVG-20010904/DTD/svg10.dtd">
<svg version="1.0" xmlns="http://www.w3.org/2000/svg"
 width="604.000000pt" height="604.000000pt" viewBox="0 0 604.000000 604.000000"
 preserveAspectRatio="xMidYMid meet">
<metadata>
Created by potrace 1.14, written by Peter Selinger 2001-2017
</metadata>
<g transform="translate(0.000000,604.000000) scale(0.100000,-0.100000)"
fill="#000000" stroke="none">
<path d="M0 3020 l0 -3020 3020 0 3020 0 0 3020 0 3020 -3020 0 -3020 0 0
-3020z m899 837 c87 -32 201 -150 201 -208 0 -55 -73 -78 -113 -35 -12 13 -37
40 -55 60 -60 66 -150 93 -255 76 -143 -23 -208 -108 -163 -214 27 -65 91 -98
234 -121 119 -19 175 -37 235 -75 88 -55 129 -139 129 -257 -1 -105 -59 -201
-152 -248 -184 -93 -425 -65 -561 67 -36 35 -79 104 -79 128 0 22 41 50 74 50
28 0 41 -9 82 -56 70 -83 131 -109 254 -109 88 0 99 2 149 31 71 40 93 80 89
155 -7 109 -73 159 -250 190 -178 32 -280 89 -327 185 -94 188 30 371 274 404
80 10 168 2 234 -23z m512 -4 c11 -13 15 -101 19 -439 5 -410 6 -423 26 -451
16 -21 32 -29 64 -33 83 -10 106 -96 34 -126 -88 -37 -188 13 -235 118 l-24
53 0 426 c0 406 1 428 19 448 23 26 78 28 97 4z m952 -18 c97 -20 181 -68 262
-150 107 -107 155 -219 155 -365 0 -145 -55 -276 -160 -379 -101 -100 -225
-151 -364 -151 -152 0 -264 47 -372 154 -138 138 -195 325 -149 496 75 284
347 455 628 395z m2032 -276 c33 -6 77 -20 99 -31 53 -27 126 -103 156 -163
24 -49 25 -57 28 -293 3 -219 2 -246 -14 -263 -20 -22 -62 -25 -90 -5 -17 13
-19 32 -25 238 -3 125 -10 235 -17 249 -17 43 -74 101 -117 120 -102 47 -222
1 -278 -105 -20 -38 -22 -59 -25 -264 -4 -213 -5 -223 -25 -237 -30 -21 -63
-19 -88 6 -20 20 -20 29 -17 262 3 235 4 243 28 291 50 100 154 178 257 196
68 11 64 11 128 -1z m936 -9 c154 -29 280 -155 309 -309 13 -68 13 -367 0
-444 -21 -130 -100 -234 -220 -291 -58 -28 -75 -31 -160 -31 -88 0 -101 3
-162 33 -44 21 -84 51 -117 88 -56 61 -65 98 -31 129 34 31 67 22 123 -33 81
-80 166 -105 259 -78 69 20 125 67 154 130 21 44 33 126 19 126 -2 0 -21 -11
-41 -25 -107 -73 -288 -73 -401 -2 -82 52 -144 132 -170 221 -23 76 -14 195
19 268 50 108 166 198 280 217 74 12 79 12 139 1z m-1790 -31 c70 -33 155
-117 186 -186 14 -29 29 -81 34 -116 12 -87 11 -348 -2 -386 -20 -56 -97 -55
-119 1 -8 18 -14 34 -16 36 -1 2 -19 -9 -40 -23 -94 -63 -260 -74 -366 -22
-71 35 -150 114 -185 184 -32 66 -42 183 -23 263 25 104 127 217 237 261 73
29 218 23 294 -12z m-1085 -1368 c-7 -11 -101 -20 -251 -26 -109 -3 -113 -3
-45 5 41 5 120 13 175 18 55 5 106 10 113 11 7 0 11 -3 8 -8z m229 -18 c-10
-16 -28 -41 -40 -58 -15 -21 -32 -80 -55 -200 -19 -93 -36 -162 -38 -153 -2
10 8 75 22 144 14 70 26 132 26 138 0 5 -18 -8 -40 -29 -61 -60 -48 -31 20 43
34 36 71 83 82 104 12 21 26 38 31 38 5 0 1 -12 -8 -27z m95 -13 c-11 -21 -20
-44 -20 -50 0 -6 44 -10 120 -10 66 0 120 -2 120 -4 0 -13 -41 -98 -45 -94 -3
3 2 21 10 41 8 20 15 39 15 42 0 3 -28 5 -62 3 l-62 -3 -23 -115 c-49 -246
-39 -220 -81 -219 -28 1 -31 3 -12 6 14 3 28 8 32 12 7 6 68 289 68 313 0 4
-20 8 -45 8 -43 0 -47 -3 -81 -50 -44 -62 -57 -60 -16 1 17 24 43 70 58 102
16 31 32 57 36 57 5 0 -1 -18 -12 -40z m720 20 c-8 -5 -52 -19 -97 -31 -46
-12 -83 -27 -83 -33 0 -6 -3 -28 -6 -48 l-7 -38 99 -1 c60 -1 85 -4 64 -8
l-35 -6 -26 -128 c-15 -70 -29 -131 -33 -134 -10 -10 -7 7 19 137 14 68 25
124 25 126 0 2 -26 4 -58 4 l-58 0 -12 -48 c-7 -26 -23 -70 -36 -98 -24 -51
-85 -129 -94 -120 -2 3 10 22 28 43 45 51 75 123 102 247 23 106 23 106 53
107 17 0 59 10 95 23 64 21 89 24 60 6z m486 11 c-7 -11 -101 -20 -251 -26
-109 -3 -113 -3 -45 5 41 5 120 13 175 18 55 5 106 10 113 11 7 0 11 -3 8 -8z
m-696 -21 c0 -6 -42 -10 -106 -10 -67 0 -103 4 -99 10 3 6 50 10 106 10 59 0
99 -4 99 -10z m-894 -44 c-14 -19 -26 -37 -26 -40 0 -3 23 -6 51 -6 43 0 50
-3 45 -16 -3 -9 -6 -24 -6 -35 0 -10 -4 -19 -10 -19 -5 0 -7 13 -3 30 l6 30
-190 0 -190 0 -11 -32 c-7 -25 -10 -28 -11 -11 -2 43 9 53 56 53 l45 0 -7 38
c-4 24 -3 34 3 27 6 -5 12 -21 14 -35 3 -22 8 -25 51 -28 l47 -3 0 38 c0 28 3
34 10 23 5 -8 10 -25 10 -37 0 -19 6 -23 29 -23 23 0 38 10 63 40 40 49 61 53
24 6z m1520 -11 l-27 -35 54 0 54 0 -5 -30 c-2 -17 -9 -33 -14 -36 -6 -4 -8 5
-3 25 l7 31 -191 0 -191 0 -6 -30 c-4 -16 -11 -30 -15 -30 -8 0 -3 44 8 63 2
4 24 7 49 7 l45 0 -6 38 c-5 36 4 26 19 -20 4 -14 16 -18 51 -18 l45 0 1 38 1
37 10 -37 c9 -33 14 -38 39 -38 21 0 36 10 60 40 39 49 53 45 15 -5z m-656
-32 c-1 -5 -6 -35 -13 -68 l-13 -60 -81 -3 -81 -3 -12 -47 c-15 -55 -55 -138
-71 -148 -6 -4 -10 -3 -7 2 2 5 17 35 32 67 15 32 38 105 49 163 l22 104 87 0
c49 0 88 -3 88 -7z m-1050 -62 c-5 -11 -10 -22 -10 -25 0 -3 50 -6 111 -6 71
0 108 -4 104 -10 -4 -6 -55 -10 -119 -10 -111 0 -113 0 -124 -25 l-12 -25 105
0 c58 0 105 -4 105 -9 0 -10 -58 -63 -87 -80 -16 -9 -16 -12 -3 -21 8 -5 39
-15 68 -21 29 -7 55 -16 58 -21 9 -14 -29 -8 -97 16 l-67 23 -72 -24 c-39 -13
-77 -22 -83 -20 -14 5 -5 9 76 32 31 8 57 19 56 23 0 4 -18 22 -39 40 l-39 33
-35 -39 c-40 -44 -113 -98 -122 -89 -3 3 15 19 39 36 48 33 100 89 130 140
l18 31 -50 0 c-28 0 -51 5 -51 10 0 6 25 10 55 10 49 0 57 3 67 25 6 14 15 25
20 25 5 0 4 -9 -2 -19z m1524 -6 l-6 -25 106 0 c64 0 106 -4 106 -10 0 -6 -45
-10 -115 -10 -103 0 -115 -2 -125 -19 -5 -11 -10 -22 -10 -25 0 -3 45 -6 99
-6 55 0 103 -4 106 -10 3 -5 -19 -29 -49 -52 l-56 -43 48 -17 c26 -9 57 -17
70 -17 12 -1 22 -6 22 -12 0 -13 -44 -4 -113 21 -46 18 -50 18 -100 0 -73 -25
-110 -33 -103 -22 3 6 22 13 41 16 19 4 48 13 65 19 l30 13 -40 39 -41 40 -37
-42 c-45 -50 -107 -96 -123 -91 -6 2 13 19 41 37 46 30 140 139 140 162 0 5
-20 9 -45 9 -25 0 -45 5 -45 10 0 6 24 10 53 10 48 0 55 3 65 25 6 14 14 25
17 25 3 0 3 -11 -1 -25z m-1010 -83 c-36 -61 -74 -112 -85 -112 -5 0 6 21 25
48 18 26 44 67 56 92 13 25 25 39 27 32 3 -7 -8 -34 -23 -60z m212 -57 l4 -60
-19 80 c-24 96 -25 123 -4 75 8 -19 17 -62 19 -95z"/>
<path d="M2136 3739 c-113 -27 -225 -121 -279 -237 -26 -56 -32 -82 -35 -159
-8 -165 55 -299 178 -381 86 -58 148 -76 255 -75 181 1 314 83 387 239 115
245 -5 528 -255 606 -63 19 -183 23 -251 7z m217 -161 c9 -11 17 -29 17 -40 0
-27 -45 -68 -75 -68 -29 0 -75 40 -75 65 0 67 88 96 133 43z m-78 -182 c55
-23 57 -51 15 -206 -29 -104 -25 -120 30 -120 52 0 51 -16 -2 -40 -52 -23 -89
-25 -127 -5 -48 24 -53 68 -21 180 11 38 20 87 20 107 0 38 0 38 -40 38 -22 0
-40 4 -40 10 0 12 36 31 75 41 45 11 53 10 90 -5z"/>
<path d="M5164 3401 c-93 -42 -148 -128 -148 -231 0 -260 352 -342 468 -108
82 164 -39 358 -224 358 -32 0 -72 -8 -96 -19z"/>
<path d="M3269 3392 c-245 -128 -137 -497 137 -469 130 13 223 117 224 247 0
186 -197 308 -361 222z"/>
<path d="M3096 2032 c-3 -5 -8 -32 -12 -60 l-7 -52 71 0 c77 0 76 -1 87 74 l7
46 -70 0 c-39 0 -73 -4 -76 -8z"/>
<path d="M2170 1851 c0 -6 16 -22 35 -37 31 -24 38 -25 64 -14 16 6 39 22 52
36 l22 24 -86 0 c-48 0 -87 -4 -87 -9z"/>
<path d="M3715 1830 c39 -41 59 -45 99 -21 72 45 68 51 -35 51 l-93 0 29 -30z"/>
</g>
</svg>
